<svg width="259" height="63" viewBox="0 0 259 63" fill="none" xmlns="http://www.w3.org/2000/svg">
<g clip-path="url(#clip0_135_153)">
<path d="M0 63H259.007V0.00667243H0V63Z" fill="#FF6357"/>
<path d="M176.949 20.8562L176.637 20.8718L176.33 20.8851L176.029 20.9229L175.732 20.9763L175.449 21.0475L175.146 21.132L174.879 21.2254L174.607 21.3321L174.337 21.4567L174.081 21.5879L173.824 21.7391L173.577 21.9037L173.334 22.0616L173.107 22.2417L172.888 22.433L172.688 22.6331L172.487 22.8511L172.3 23.0712L172.106 23.3003L171.943 23.5294L171.778 23.7718L171.629 24.032L171.506 24.2855L171.381 24.5591L171.279 24.8304L171.183 25.1128L171.096 25.3953L171.036 25.7022L170.976 25.9957L170.933 26.2915L170.909 26.6006L170.898 26.9076V35.8701L170.909 36.1792L170.933 36.4883L170.976 36.7863L171.036 37.0799L171.096 37.3846L171.183 37.6692L171.279 37.9361L171.381 38.2208L171.504 38.4965L171.627 38.7501L171.776 38.9969L171.941 39.2571L172.104 39.4862L172.297 39.713L172.485 39.9332L172.685 40.1467L172.886 40.358L173.104 40.5403L173.332 40.7183L173.575 40.8806L173.822 41.0407L174.078 41.1942L174.335 41.3254L174.604 41.4455L174.876 41.5567L175.144 41.6501L175.447 41.7368L175.73 41.8036L176.026 41.8569L176.327 41.897L176.635 41.9081L176.947 41.9259H196.169L196.481 41.9081L196.789 41.897L197.092 41.8569L197.391 41.8036L197.676 41.7368L197.957 41.6501L198.247 41.5567L198.514 41.4455L198.784 41.3254L199.044 41.1942L199.301 41.0407L199.548 40.8806L199.789 40.7183L200.003 40.5403L200.228 40.358L200.433 40.1467L200.643 39.9332L200.83 39.713L201.001 39.4862L201.178 39.2571L201.334 38.9969L201.476 38.7501L201.619 38.4965L201.733 38.2208L201.844 37.9361L201.94 37.6692L202.018 37.3846L202.091 37.0799L202.143 36.7863L202.183 36.4883L202.212 36.1792V26.6006L202.183 26.2915L202.143 25.9957L202.091 25.7022L202.018 25.3953L201.94 25.1128L201.844 24.8304L201.733 24.5591L201.619 24.2833L201.476 24.0298L201.334 23.7696L201.178 23.5272L201.001 23.2981L200.83 23.069L200.643 22.8488L200.433 22.6309L200.228 22.4307L200.003 22.2395L199.789 22.0593L199.548 21.9014L199.301 21.7369L199.044 21.5856L198.784 21.4544L198.514 21.3299L198.247 21.2231L197.957 21.1297L197.676 21.0452L197.391 20.9741L197.092 20.9207L196.789 20.8829L196.481 20.8695L196.169 20.854L176.949 20.8562ZM193.234 39.5062H179.885V23.2692H193.234V39.5062Z" fill="white"/>
<path d="M231.85 21.063L232.148 21.0741L232.456 21.103L232.752 21.1431L233.053 21.1965L233.352 21.2654L233.637 21.3521L233.918 21.4366L234.188 21.5523L234.464 21.6702L234.725 21.7991L234.977 21.9393L235.22 22.1016L235.452 22.2684L235.683 22.4597L235.895 22.642L236.118 22.8488L236.316 23.049L236.506 23.2692L236.686 23.496L236.845 23.7451L237.01 23.9942L237.161 24.2455L237.295 24.5057L237.417 24.777L237.522 25.0483L237.618 25.3263L237.701 25.6177L237.767 25.9023L237.819 26.1959L237.868 26.5006L237.874 26.8097L237.888 27.1277V41.9281H232.674L232.429 41.9103L232.2 41.8881L231.972 41.8592L231.756 41.8236L231.535 41.7769L231.337 41.7257L231.145 41.6523L230.954 41.5878L230.775 41.5189L230.615 41.4322L230.454 41.3454L230.292 41.2498L230.149 41.1386L230.015 41.0296L229.884 40.9095L229.757 40.7894L229.652 40.6605L229.54 40.527L229.449 40.378L229.349 40.2201L229.273 40.08L229.202 39.9221L229.139 39.7575L229.084 39.5752L229.03 39.3973L228.99 39.226L228.959 39.0459L228.934 38.8591L228.907 38.6589L228.896 38.4676V23.4871H215.565V41.9281H210.345L210.098 41.9103L209.873 41.8881L209.645 41.8592L209.422 41.8236L209.211 41.7769L209.01 41.7257L208.818 41.6523L208.627 41.5878L208.446 41.5189L208.277 41.4322L208.123 41.3454L207.96 41.2498L207.822 41.1386L207.673 41.0296L207.55 40.9095L207.432 40.7894L207.325 40.6605L207.209 40.527L207.122 40.378L207.028 40.2201L206.944 40.08L206.875 39.9221L206.803 39.7575L206.752 39.5752L206.696 39.3973L206.663 39.226L206.632 39.0348L206.605 38.8568L206.574 38.6567L206.567 38.4654V21.0675L231.85 21.063Z" fill="white"/>
<path d="M122.943 38.2252V38.4343L122.958 38.6189L122.971 38.8235L123.003 39.0103L123.043 39.2015L123.083 39.3817L123.13 39.5551L123.188 39.7353L123.257 39.8976L123.321 40.0577L123.411 40.2067L123.498 40.3624L123.596 40.5048L123.685 40.6382L123.812 40.7805L123.934 40.8939L124.05 41.0207L124.193 41.1297L124.336 41.2364L124.489 41.3321L124.643 41.4299L124.824 41.5122L124.998 41.5923L125.178 41.6568L125.377 41.7146L125.586 41.7702L125.784 41.828L126.014 41.8636L126.232 41.8925L126.478 41.9147L126.716 41.9325H131.261V27.1322L131.25 26.8141L131.232 26.505L131.194 26.2003L131.138 25.9068L131.067 25.6221L130.996 25.3241L130.889 25.055L130.786 24.7837L130.663 24.5124L130.528 24.2566L130.376 24.0031L130.213 23.754L130.055 23.5049L129.879 23.2692L129.696 23.049L129.496 22.8444L129.273 22.6398L129.061 22.4574L128.827 22.2662L128.593 22.0994L128.352 21.9415L128.096 21.8014L127.839 21.6679L127.572 21.5501L127.296 21.4344L127.013 21.3499L126.723 21.2654L126.431 21.1942L126.134 21.1409L125.831 21.1008L125.519 21.0719L125.223 21.0608H91.5037V38.432L91.5193 38.6166L91.5304 38.8212L91.5572 39.008L91.595 39.1993L91.6374 39.3794L91.6798 39.5529L91.7533 39.733L91.7957 39.8954L91.8804 40.0555L91.9651 40.2045L92.0453 40.3602L92.1389 40.5025L92.2503 40.636L92.3529 40.7783L92.4799 40.8917L92.6114 41.0185L92.7429 41.1275L92.8923 41.2342L93.0483 41.3298L93.211 41.4277L93.3693 41.51L93.561 41.59L93.737 41.6545L93.9443 41.7124L94.1427 41.768L94.3522 41.8258L94.564 41.8614L94.7869 41.8903L95.0365 41.9014L95.2861 41.9125L95.5291 41.9303H99.8019V23.4849H107.496V38.432L107.501 38.6166L107.532 38.8212L107.554 39.008L107.583 39.1993L107.628 39.3794L107.681 39.5529L107.728 39.733L107.797 39.8954L107.871 40.0555L107.944 40.2045L108.044 40.3602L108.134 40.5025L108.243 40.636L108.352 40.7783L108.479 40.8917L108.611 41.0185L108.744 41.1275L108.876 41.2342L109.045 41.3298L109.208 41.4277L109.368 41.51L109.542 41.59L109.734 41.6545L109.921 41.7124L110.126 41.768L110.338 41.8258L110.559 41.8614L110.795 41.8903L111.022 41.9125H111.261L111.524 41.9303H115.257V23.4849H122.943V38.2252Z" fill="white"/>
<path d="M144.612 39.5062V23.2692H157.658V26.8208H166.935L166.923 26.5273L166.897 26.2248L166.857 25.9312L166.796 25.6243L166.73 25.3463L166.656 25.0639L166.556 24.7881L166.449 24.5124L166.324 24.2455L166.19 23.992L166.039 23.7429L165.896 23.4938L165.715 23.2669L165.535 23.0379L165.352 22.8177L165.147 22.6198L164.926 22.4107L164.717 22.2239L164.478 22.0504L164.251 21.8925L163.997 21.7302L163.747 21.5879L163.493 21.4567L163.223 21.3343L162.954 21.2254L162.666 21.132L162.381 21.0474L162.087 20.9763L161.797 20.9251L161.505 20.8829L161.193 20.8718L160.879 20.8562H141.672L141.353 20.8718L141.048 20.8829L140.743 20.9251L140.451 20.9763L140.148 21.0474L139.862 21.132L139.584 21.2254L139.312 21.3343L139.035 21.4567L138.781 21.5879L138.527 21.7413L138.282 21.9037L138.046 22.0616L137.821 22.2395L137.602 22.433L137.384 22.6331L137.183 22.8511L136.989 23.0712L136.818 23.3003L136.659 23.5294L136.49 23.7762L136.345 24.032L136.205 24.2855L136.089 24.5613L135.977 24.8326L135.881 25.115L135.808 25.3997L135.739 25.7044L135.681 25.998L135.641 26.2937L135.623 26.6029L135.614 26.9098V35.8723L135.623 36.1814L135.641 36.4905L135.681 36.7885L135.739 37.0821L135.808 37.3868L135.881 37.6714L135.977 37.9383L136.089 38.2208L136.205 38.4988L136.345 38.7523L136.49 38.9991L136.659 39.2593L136.818 39.4884L136.989 39.7153L137.183 39.9354L137.384 40.1534L137.602 40.3624L137.821 40.5448L138.046 40.7227L138.282 40.8851L138.527 41.0452L138.781 41.1964L139.035 41.3321L139.312 41.4522L139.584 41.5634L139.862 41.6568L140.148 41.7413L140.451 41.8102L140.743 41.8636L141.048 41.9036L141.353 41.9147L141.672 41.9325H160.879L161.195 41.9147L161.507 41.8925L161.799 41.8636L162.089 41.8102L162.383 41.7413L162.668 41.6568L162.954 41.5634L163.223 41.4522L163.493 41.3321L163.747 41.1964L163.997 41.0607L164.251 40.8939L164.478 40.736L164.717 40.5648L164.926 40.3735L165.147 40.1645L165.352 39.9666L165.535 39.7464L165.715 39.5173L165.896 39.2883L166.039 39.0392L166.19 38.7968L166.324 38.5366L166.449 38.2741L166.556 37.9961L166.656 37.7204L166.73 37.4446L166.796 37.1555L166.857 36.8575L166.897 36.5595L166.923 36.2681L166.935 35.9501H157.658V39.5062H144.612Z" fill="white"/>
<path d="M78.7365 30.388H65.2203V23.2692H78.7365V30.388ZM87.5474 26.8208V26.5273L87.5184 26.2248L87.4783 25.9312L87.4226 25.6332L87.3557 25.3397L87.271 25.0639L87.1818 24.7881L87.0704 24.5124L86.9478 24.2455L86.8141 23.992L86.6647 23.7429L86.4998 23.4938L86.3349 23.2669L86.1432 23.0379L85.9582 22.8177L85.7531 22.6198L85.5481 22.4107L85.3252 22.2239L85.1 22.0504L84.8526 21.8925L84.6141 21.7302L84.3534 21.5879L84.0993 21.4567L83.834 21.3343L83.5576 21.2254L83.2768 21.132L83.0004 21.0474L82.6995 20.9763L82.4031 20.9251L82.1066 20.8851L81.8102 20.8651L81.4981 20.8584H62.267L61.9639 20.8651L61.663 20.8851L61.3465 20.9251L61.0523 20.9763L60.7692 21.0474L60.4794 21.132L60.1986 21.2254L59.9289 21.3343L59.6525 21.4567L59.3984 21.5879L59.1421 21.7413L58.9036 21.9037L58.6562 22.0616L58.4333 22.2417L58.2082 22.433L58.0031 22.6331L57.798 22.8511L57.6175 23.069L57.4459 23.2981L57.2653 23.5271L57.0982 23.774L56.9711 24.0298L56.8329 24.2833L56.7036 24.5591L56.6011 24.8304L56.503 25.1128L56.4295 25.3975L56.3537 25.7022L56.3024 25.9957L56.2601 26.2893L56.2378 26.6006V36.1814L56.2601 36.4883L56.3024 36.7863L56.3537 37.0799L56.4295 37.3846L56.503 37.667L56.6011 37.9339L56.7036 38.223L56.8307 38.4988L56.9689 38.7501L57.0959 38.9992L57.2631 39.2594L57.4436 39.4884L57.6153 39.7153L57.8025 39.9354L58.0076 40.1534L58.2126 40.3624L58.4377 40.5448L58.6606 40.7227L58.908 40.8851L59.1465 41.043L59.4029 41.1986L59.657 41.3299L59.9333 41.45L60.203 41.5612L60.4839 41.6546L60.7736 41.7413L61.0567 41.808L61.3509 41.8592L61.6674 41.9014L61.9683 41.9125L62.2715 41.9303H80.7826L81.1014 41.9125L81.3934 41.8903L81.6965 41.8592L81.9907 41.808L82.2738 41.7413L82.5613 41.6546L82.8466 41.5612L83.1118 41.45L83.3882 41.3299L83.6423 41.1986L83.9031 41.0608L84.1505 40.894L84.389 40.7361L84.6097 40.5648L84.8437 40.3713L85.0443 40.1645L85.2472 39.9644L85.4388 39.7464L85.6238 39.5173L85.7888 39.2883L85.947 39.0414L86.1008 38.7946L86.2435 38.5344L86.3549 38.2719L86.4686 37.9939L86.5622 37.7182L86.6425 37.4424L86.7093 37.1533L86.765 36.8575L86.8074 36.555L86.823 36.2637L86.8275 35.9457H77.5485V39.5018H65.227V32.7966H81.5093L81.8213 32.7832L82.1178 32.7721L82.4142 32.7321L82.7106 32.6787L83.0138 32.6053L83.2902 32.5319L83.571 32.4341L83.8474 32.3318L84.1126 32.2072L84.3667 32.0671L84.6275 31.9292L84.866 31.7713L85.1134 31.6068L85.3385 31.4288L85.5614 31.2398L85.7665 31.0396L85.9716 30.835L86.1565 30.6149L86.3482 30.3814L86.5132 30.1545L86.6781 29.9054L86.8275 29.663L86.9612 29.4139L87.0838 29.1359L87.1952 28.8669L87.2844 28.5978L87.3691 28.3131L87.4359 28.024L87.4917 27.7304L87.5318 27.428L87.5608 27.1344L87.5474 26.8208Z" fill="white"/>
<path d="M26.7158 20.8562L26.4328 20.8718L26.1452 20.8851L25.8577 20.9229L25.5858 20.9607L25.3183 21.0386L25.0464 21.1186L24.7923 21.1942L24.5426 21.2943L24.2885 21.4122L24.0612 21.5389L23.8182 21.6702L23.5842 21.8125L23.3658 21.9682L23.1607 22.1305L22.9623 22.3218L22.7528 22.4952L22.5812 22.6998L22.4051 22.9067L22.2312 23.1179L22.0819 23.3381L21.9303 23.5739L21.7944 23.814L21.6696 24.0609L21.5715 24.3011L21.4556 24.5613L21.3753 24.8326L21.2906 25.1017L21.2216 25.3908L21.1903 25.6599L21.148 25.9557L21.1324 26.2448L21.119 26.5428L21.1324 26.8342L21.148 27.1411L21.1903 27.4346L21.2216 27.7193L21.2906 27.9995L21.3753 28.2753L21.4556 28.5466L21.5715 28.809L21.6696 29.0626L21.7944 29.3027L21.9303 29.5496L22.0819 29.7787L22.2312 30.0144L22.4051 30.2257L22.5812 30.4325L22.7528 30.6238L22.9623 30.815L23.1607 30.9863L23.3658 31.1442L23.5842 31.3199L23.8182 31.4622L24.0612 31.5934L24.2885 31.7202L24.5426 31.8292L24.7923 31.9315L25.0464 32.016L25.3183 32.0983L25.5858 32.1494L25.8577 32.2094L26.1452 32.2361L26.4328 32.2606H41.3464L41.576 32.2762L41.7944 32.3184L42.0263 32.3696L42.2313 32.4496L42.4364 32.5564L42.6236 32.6587L42.7975 32.7877L42.9602 32.9434L43.105 33.1035L43.241 33.2747L43.3547 33.466L43.4617 33.6728L43.5285 33.8908L43.5954 34.1109L43.6222 34.3355L43.6333 34.5691V37.2556L43.6222 37.4847L43.5954 37.7093L43.5285 37.9272L43.4617 38.1252L43.3658 38.3342L43.241 38.5143L43.105 38.6923L42.9602 38.8502L42.7975 38.9858L42.6236 39.1282L42.4364 39.2305L42.2313 39.3283L42.0263 39.4017L41.8056 39.4595L41.5782 39.504L41.3487 39.5151L30.3958 39.504V35.9479H21.119L21.1324 36.2659L21.148 36.5573L21.1903 36.8597L21.2327 37.1555L21.3129 37.4446L21.3865 37.7159L21.4823 37.9917L21.5938 38.2719L21.7208 38.5321L21.8546 38.7946L21.9972 39.0414L22.1666 39.2883L22.3293 39.5173L22.5232 39.7442L22.7082 39.9666L22.9066 40.1645L23.105 40.3736L23.3435 40.5648L23.5552 40.7361L23.7982 40.894L24.0478 41.0608L24.3019 41.1987L24.5627 41.3299L24.8279 41.45L25.1043 41.5612L25.3896 41.6546L25.6705 41.7413L25.9558 41.808L26.25 41.8614L26.5442 41.8903L26.8496 41.9125L27.1594 41.9303H45.6438L45.9781 41.9125L46.3281 41.8903L46.6669 41.8614L46.9967 41.808L47.3355 41.7413L47.6587 41.6546L47.9708 41.5612L48.2828 41.45L48.5793 41.3299L48.8668 41.1987L49.1476 41.0452L49.4396 40.894L49.6982 40.7227L49.959 40.5448L50.2086 40.3624L50.4337 40.1512L50.67 39.9532L50.8795 39.7353L51.0846 39.5062L51.2785 39.2705L51.4501 39.0303L51.6084 38.7656L51.7622 38.5143L51.8959 38.243L52.0185 37.9673L52.1344 37.687L52.2191 37.4024L52.3038 37.1133L52.3595 36.8197L52.3996 36.515L52.4264 36.2237L52.442 35.9057L52.4264 35.601L52.3996 35.2963L52.3595 34.9849L52.3038 34.7025L52.2191 34.4089L52.1344 34.1198L52.0185 33.8441L51.8959 33.5616L51.7622 33.3059L51.6084 33.0457L51.4501 32.7855L51.2785 32.5519L51.0846 32.3162L50.8795 32.0849L50.67 31.8647L50.4337 31.6468L50.2086 31.4555L49.959 31.2643L49.6982 31.073L49.4396 30.9084L49.1476 30.7483L48.8668 30.6149L48.5793 30.4859L48.2828 30.3591L47.9708 30.2479L47.6587 30.1523L47.3355 30.07L46.9967 30.0055L46.6669 29.9477L46.3281 29.9032L45.9781 29.8921L45.6438 29.8788H32.2034L31.9984 29.8632L31.7955 29.8476L31.6038 29.7876L31.4032 29.7142L31.2026 29.6408L31.0109 29.5318L30.8349 29.4139L30.6699 29.2716L30.5094 29.107L30.3713 28.9358L30.2331 28.7579L30.1305 28.5577L30.0458 28.3376L29.9745 28.1107L29.95 27.9884L29.9366 27.8639L29.9255 27.7282V25.2596L29.9366 25.0728L29.9745 24.8815L30.0347 24.6858L30.1082 24.499L30.2108 24.3344L30.3267 24.1565L30.4693 24.0142L30.6276 23.8585L30.7903 23.7407L30.9664 23.6183L31.1514 23.5227L31.3743 23.4293L31.5793 23.3581L31.8089 23.3203L32.0273 23.2781L32.2636 23.2625H42.6214V26.2937H51.8803L51.829 26.0091L51.7889 25.74L51.7243 25.4709L51.6552 25.2018L51.5749 24.926L51.4746 24.6725L51.3721 24.4167L51.2473 24.1677L51.1158 23.9275L50.9754 23.6873L50.826 23.4582L50.67 23.2403L50.4895 23.0334L50.3089 22.8155L50.1172 22.6309L49.9188 22.4441L49.7205 22.2684L49.4976 22.0905L49.2747 21.9326L49.0362 21.7814L48.8088 21.6412L48.5681 21.51L48.3207 21.3855L48.0666 21.2765L47.8058 21.1787L47.5361 21.103L47.2664 21.0363L46.9967 20.9585L46.7092 20.9207L46.4217 20.8829L46.1408 20.8695L45.8444 20.854L26.7158 20.8562Z" fill="white"/>
</g>
<defs>
<clipPath id="clip0_135_153">
<rect width="259" height="63" fill="white"/>
</clipPath>
</defs>
</svg>
