<svg width="49" height="49" viewBox="0 0 49 49" fill="none" xmlns="http://www.w3.org/2000/svg">
<path d="M35.9295 31.5996H33.6589L32.8541 30.8241C36.3031 26.8025 38.0852 21.316 37.1079 15.4847C35.757 7.4991 29.0889 1.12208 21.0411 0.145424C8.88312 -1.34829 -1.34908 8.87792 0.145509 21.0287C1.12274 29.0718 7.5035 35.7361 15.4938 37.0862C21.3285 38.0628 26.8182 36.2819 30.8421 32.8348L31.6182 33.6391V35.9084L43.8336 48.1167C45.012 49.2944 46.9377 49.2944 48.1162 48.1167C49.2946 46.939 49.2946 45.0144 48.1162 43.8366L35.9295 31.5996ZM18.6842 31.5996C11.5274 31.5996 5.75023 25.8259 5.75023 18.6732C5.75023 11.5206 11.5274 5.74686 18.6842 5.74686C25.841 5.74686 31.6182 11.5206 31.6182 18.6732C31.6182 25.8259 25.841 31.5996 18.6842 31.5996Z" fill="#484848"/>
</svg>
